<svg xmlns="http://www.w3.org/2000/svg" width="1180" height="700" viewBox="0 0 1180 700">
<rect width="100%" height="100%" fill="#0b1220"/>
<text x="72" y="28" fill="#e2e8f0" font-family="ui-sans-serif,system-ui,sans-serif" font-size="20" font-weight="700">€20k 15m + AlphaI vs Donchian vs mix — 26 aug t/m 21 sep 2026</text>
<text x="72" y="48" fill="#94a3b8" font-family="ui-sans-serif,system-ui,sans-serif" font-size="12">AlphaI-tijdlijn 7–20 sep (1189 sessions). 15m +€3.268 · Donchian +€5.571 · mix +€1.247. Live engine ongewijzigd.</text>
<line x1="72" y1="364.0" x2="1156" y2="364.0" stroke="#1e293b" stroke-width="1"/>
<text x="64" y="368.0" fill="#64748b" font-size="11" font-family="ui-sans-serif,system-ui,sans-serif" text-anchor="end">€18,600</text>
<line x1="72" y1="289.0" x2="1156" y2="289.0" stroke="#1e293b" stroke-width="1"/>
<text x="64" y="293.0" fill="#64748b" font-size="11" font-family="ui-sans-serif,system-ui,sans-serif" text-anchor="end">€20,521</text>
<line x1="72" y1="214.0" x2="1156" y2="214.0" stroke="#1e293b" stroke-width="1"/>
<text x="64" y="218.0" fill="#64748b" font-size="11" font-family="ui-sans-serif,system-ui,sans-serif" text-anchor="end">€22,441</text>
<line x1="72" y1="139.0" x2="1156" y2="139.0" stroke="#1e293b" stroke-width="1"/>
<text x="64" y="143.0" fill="#64748b" font-size="11" font-family="ui-sans-serif,system-ui,sans-serif" text-anchor="end">€24,362</text>
<line x1="72" y1="64.0" x2="1156" y2="64.0" stroke="#1e293b" stroke-width="1"/>
<text x="64" y="68.0" fill="#64748b" font-size="11" font-family="ui-sans-serif,system-ui,sans-serif" text-anchor="end">€26,283</text>
<line x1="72" y1="309.3" x2="1156" y2="309.3" stroke="#475569" stroke-width="1" stroke-dasharray="4 4"/>
<rect x="635.7" y="64" width="43.4" height="300" fill="rgba(239,68,68,0.10)"/>
<rect x="679.0" y="64" width="43.4" height="300" fill="rgba(239,68,68,0.10)"/>
<rect x="722.4" y="64" width="43.4" height="300" fill="rgba(239,68,68,0.10)"/>
<rect x="765.8" y="64" width="43.4" height="300" fill="rgba(239,68,68,0.10)"/>
<rect x="809.1" y="64" width="43.4" height="300" fill="rgba(239,68,68,0.10)"/>
<rect x="895.8" y="64" width="43.4" height="300" fill="rgba(239,68,68,0.10)"/>
<rect x="939.2" y="64" width="43.4" height="300" fill="rgba(239,68,68,0.10)"/>
<rect x="982.6" y="64" width="43.4" height="300" fill="rgba(239,68,68,0.10)"/>
<polygon points="72.0,311.2 115.4,338.9 158.7,327.7 202.1,318.0 245.4,314.7 288.8,297.3 332.2,268.4 375.5,206.5 418.9,233.3 462.2,174.2 505.6,158.0 549.0,187.3 592.3,169.1 635.7,227.5 679.0,250.2 722.4,255.9 765.8,254.6 809.1,263.2 852.5,247.8 895.8,279.9 939.2,258.8 982.6,222.4 1025.9,106.2 1069.3,123.1 1112.6,79.6 1156.0,93.0 1156.0,364.0 72.0,364.0" fill="rgba(245,158,11,0.10)" stroke="none"/>
<polyline points="72.0,311.2 115.4,338.9 158.7,327.7 202.1,318.0 245.4,314.7 288.8,297.3 332.2,268.4 375.5,206.5 418.9,233.3 462.2,174.2 505.6,158.0 549.0,187.3 592.3,169.1 635.7,227.5 679.0,250.2 722.4,255.9 765.8,254.6 809.1,263.2 852.5,247.8 895.8,279.9 939.2,258.8 982.6,222.4 1025.9,106.2 1069.3,123.1 1112.6,79.6 1156.0,93.0" fill="none" stroke="#f59e0b" stroke-width="2.4" stroke-linejoin="round"/>
<polyline points="72.0,311.2 115.4,338.9 158.7,327.7 202.1,318.0 245.4,314.7 288.8,297.3 332.2,268.4 375.5,206.5 418.9,233.3 462.2,174.2 505.6,158.0 549.0,187.3 592.3,169.1 635.7,229.0 679.0,222.0 722.4,237.3 765.8,239.5 809.1,234.4 852.5,252.4 895.8,282.7 939.2,283.6 982.6,283.2 1025.9,274.2 1069.3,291.9 1112.6,258.9 1156.0,261.7" fill="none" stroke="#a78bfa" stroke-width="2.4" stroke-linejoin="round"/>
<text x="72.0" y="380.0" fill="#94a3b8" font-size="11" font-family="ui-sans-serif,system-ui,sans-serif" text-anchor="middle">08-27</text>
<text x="288.8" y="380.0" fill="#94a3b8" font-size="11" font-family="ui-sans-serif,system-ui,sans-serif" text-anchor="middle">09-01</text>
<text x="592.3" y="380.0" fill="#94a3b8" font-size="11" font-family="ui-sans-serif,system-ui,sans-serif" text-anchor="middle">09-08</text>
<text x="895.8" y="380.0" fill="#94a3b8" font-size="11" font-family="ui-sans-serif,system-ui,sans-serif" text-anchor="middle">09-15</text>
<text x="1156.0" y="380.0" fill="#94a3b8" font-size="11" font-family="ui-sans-serif,system-ui,sans-serif" text-anchor="middle">09-21</text>
<text x="72" y="58" fill="#cbd5e1" font-size="12" font-family="ui-sans-serif,system-ui,sans-serif" font-weight="600">Dagelijkse equity</text>
<text x="1156" y="58" fill="#e2e8f0" font-size="12" font-family="ui-sans-serif,system-ui,sans-serif" text-anchor="end"><tspan fill="#f59e0b">Donchian €25,541</tspan>   <tspan fill="#a78bfa">mix €21,221</tspan></text>
<text x="72" y="418" fill="#e2e8f0" font-size="13" font-family="ui-sans-serif,system-ui,sans-serif" font-weight="600">Totaal PnL op €20k (realized + open MTM)</text>
<rect x="210.0" y="530.6" width="160" height="99.4" rx="6" fill="#38bdf8" opacity="0.9"/>
<text x="290.0" y="522.6" fill="#e2e8f0" font-size="16" font-family="ui-sans-serif,system-ui,sans-serif" font-weight="700" text-anchor="middle">+3,268 €</text>
<text x="290.0" y="650.0" fill="#94a3b8" font-size="12" font-family="ui-sans-serif,system-ui,sans-serif" text-anchor="middle">15m + AlphaI</text>
<rect x="410.0" y="541.8" width="160" height="88.2" rx="6" fill="#64748b" opacity="0.9"/>
<text x="490.0" y="533.8" fill="#e2e8f0" font-size="16" font-family="ui-sans-serif,system-ui,sans-serif" font-weight="700" text-anchor="middle">+2,898 €</text>
<text x="490.0" y="650.0" fill="#94a3b8" font-size="12" font-family="ui-sans-serif,system-ui,sans-serif" text-anchor="middle">15m zonder AlphaI</text>
<rect x="610.0" y="460.5" width="160" height="169.5" rx="6" fill="#f59e0b" opacity="0.9"/>
<text x="690.0" y="452.5" fill="#e2e8f0" font-size="16" font-family="ui-sans-serif,system-ui,sans-serif" font-weight="700" text-anchor="middle">+5,571 €</text>
<text x="690.0" y="650.0" fill="#94a3b8" font-size="12" font-family="ui-sans-serif,system-ui,sans-serif" text-anchor="middle">Donchian</text>
<rect x="810.0" y="592.1" width="160" height="37.9" rx="6" fill="#a78bfa" opacity="0.9"/>
<text x="890.0" y="584.1" fill="#e2e8f0" font-size="16" font-family="ui-sans-serif,system-ui,sans-serif" font-weight="700" text-anchor="middle">+1,247 €</text>
<text x="890.0" y="650.0" fill="#94a3b8" font-size="12" font-family="ui-sans-serif,system-ui,sans-serif" text-anchor="middle">Live mix</text>
<text x="72" y="678" fill="#64748b" font-size="11" font-family="ui-sans-serif,system-ui,sans-serif">Rode banen = mix risk_off (shorts aan, Donchian plat). 15m heeft geen dagelijkse equity in deze plot — alleen de eindstand in de staven. AlphaI-delta vs tape-only: +€370.</text>
</svg>