<svg xmlns="http://www.w3.org/2000/svg" width="1180" height="720" viewBox="0 0 1180 720">
<rect width="100%" height="100%" fill="#0b1220"/>
<text x="72" y="30" fill="#e2e8f0" font-family="ui-sans-serif,system-ui,sans-serif" font-size="20" font-weight="700">€10k Donchian + €10k 15m momentum — 29 jun t/m 21 sep 2026 (12w)</text>
<text x="72" y="50" fill="#94a3b8" font-family="ui-sans-serif,system-ui,sans-serif" font-size="12">Onafhankelijke boeken, close-fills, geen AlphaI. Donchian +€3.360 · momentum +€853 · samen +€4.213 (+21% op €20k).</text>
<line x1="72" y1="344.0" x2="1156" y2="344.0" stroke="#1e293b" stroke-width="1"/>
<text x="64" y="348.0" fill="#64748b" font-size="11" font-family="ui-sans-serif,system-ui,sans-serif" text-anchor="end">€8,750</text>
<line x1="72" y1="274.0" x2="1156" y2="274.0" stroke="#1e293b" stroke-width="1"/>
<text x="64" y="278.0" fill="#64748b" font-size="11" font-family="ui-sans-serif,system-ui,sans-serif" text-anchor="end">€10,013</text>
<line x1="72" y1="204.0" x2="1156" y2="204.0" stroke="#1e293b" stroke-width="1"/>
<text x="64" y="208.0" fill="#64748b" font-size="11" font-family="ui-sans-serif,system-ui,sans-serif" text-anchor="end">€11,275</text>
<line x1="72" y1="134.0" x2="1156" y2="134.0" stroke="#1e293b" stroke-width="1"/>
<text x="64" y="138.0" fill="#64748b" font-size="11" font-family="ui-sans-serif,system-ui,sans-serif" text-anchor="end">€12,538</text>
<line x1="72" y1="64.0" x2="1156" y2="64.0" stroke="#1e293b" stroke-width="1"/>
<text x="64" y="68.0" fill="#64748b" font-size="11" font-family="ui-sans-serif,system-ui,sans-serif" text-anchor="end">€13,801</text>
<line x1="72" y1="274.7" x2="1156" y2="274.7" stroke="#475569" stroke-width="1" stroke-dasharray="4 4"/>
<rect x="72.0" y="64" width="13.1" height="280" fill="rgba(239,68,68,0.08)"/>
<rect x="85.1" y="64" width="13.1" height="280" fill="rgba(239,68,68,0.08)"/>
<rect x="98.1" y="64" width="13.1" height="280" fill="rgba(239,68,68,0.08)"/>
<rect x="111.2" y="64" width="13.1" height="280" fill="rgba(148,163,184,0.06)"/>
<rect x="124.2" y="64" width="13.1" height="280" fill="rgba(148,163,184,0.06)"/>
<rect x="137.3" y="64" width="13.1" height="280" fill="rgba(148,163,184,0.06)"/>
<rect x="150.4" y="64" width="13.1" height="280" fill="rgba(148,163,184,0.06)"/>
<rect x="163.4" y="64" width="13.1" height="280" fill="rgba(148,163,184,0.06)"/>
<rect x="176.5" y="64" width="13.1" height="280" fill="rgba(148,163,184,0.06)"/>
<rect x="189.5" y="64" width="13.1" height="280" fill="rgba(148,163,184,0.06)"/>
<rect x="202.6" y="64" width="13.1" height="280" fill="rgba(148,163,184,0.06)"/>
<rect x="215.7" y="64" width="13.1" height="280" fill="rgba(148,163,184,0.06)"/>
<rect x="228.7" y="64" width="13.1" height="280" fill="rgba(148,163,184,0.06)"/>
<rect x="241.8" y="64" width="13.1" height="280" fill="rgba(148,163,184,0.06)"/>
<rect x="424.6" y="64" width="13.1" height="280" fill="rgba(239,68,68,0.08)"/>
<rect x="437.7" y="64" width="13.1" height="280" fill="rgba(239,68,68,0.08)"/>
<rect x="450.7" y="64" width="13.1" height="280" fill="rgba(239,68,68,0.08)"/>
<rect x="463.8" y="64" width="13.1" height="280" fill="rgba(239,68,68,0.08)"/>
<rect x="476.9" y="64" width="13.1" height="280" fill="rgba(239,68,68,0.08)"/>
<rect x="489.9" y="64" width="13.1" height="280" fill="rgba(239,68,68,0.08)"/>
<rect x="503.0" y="64" width="13.1" height="280" fill="rgba(239,68,68,0.08)"/>
<rect x="516.0" y="64" width="13.1" height="280" fill="rgba(239,68,68,0.08)"/>
<rect x="529.1" y="64" width="13.1" height="280" fill="rgba(239,68,68,0.08)"/>
<rect x="542.2" y="64" width="13.1" height="280" fill="rgba(239,68,68,0.08)"/>
<rect x="555.2" y="64" width="13.1" height="280" fill="rgba(239,68,68,0.08)"/>
<rect x="568.3" y="64" width="13.1" height="280" fill="rgba(239,68,68,0.08)"/>
<rect x="607.5" y="64" width="13.1" height="280" fill="rgba(239,68,68,0.08)"/>
<rect x="620.5" y="64" width="13.1" height="280" fill="rgba(239,68,68,0.08)"/>
<rect x="633.6" y="64" width="13.1" height="280" fill="rgba(239,68,68,0.08)"/>
<rect x="646.7" y="64" width="13.1" height="280" fill="rgba(239,68,68,0.08)"/>
<rect x="659.7" y="64" width="13.1" height="280" fill="rgba(239,68,68,0.08)"/>
<rect x="672.8" y="64" width="13.1" height="280" fill="rgba(239,68,68,0.08)"/>
<rect x="685.8" y="64" width="13.1" height="280" fill="rgba(239,68,68,0.08)"/>
<rect x="999.3" y="64" width="13.1" height="280" fill="rgba(239,68,68,0.08)"/>
<rect x="1012.3" y="64" width="13.1" height="280" fill="rgba(239,68,68,0.08)"/>
<rect x="1025.4" y="64" width="13.1" height="280" fill="rgba(239,68,68,0.08)"/>
<rect x="1038.5" y="64" width="13.1" height="280" fill="rgba(239,68,68,0.08)"/>
<rect x="1051.5" y="64" width="13.1" height="280" fill="rgba(239,68,68,0.08)"/>
<rect x="1077.6" y="64" width="13.1" height="280" fill="rgba(239,68,68,0.08)"/>
<rect x="1090.7" y="64" width="13.1" height="280" fill="rgba(239,68,68,0.08)"/>
<rect x="1103.8" y="64" width="13.1" height="280" fill="rgba(239,68,68,0.08)"/>
<polygon points="72.0,274.7 85.1,274.7 98.1,274.7 111.2,274.7 124.2,274.7 137.3,274.7 150.4,274.7 163.4,274.7 176.5,274.7 189.5,274.7 202.6,274.7 215.7,274.7 228.7,274.7 241.8,274.7 254.8,276.0 267.9,269.4 281.0,280.2 294.0,284.2 307.1,281.8 320.1,280.8 333.2,276.6 346.3,271.8 359.3,273.5 372.4,282.7 385.4,291.4 398.5,290.1 411.6,280.2 424.6,289.7 437.7,285.4 450.7,289.0 463.8,266.4 476.9,277.4 489.9,284.7 503.0,282.6 516.0,289.7 529.1,292.3 542.2,297.9 555.2,289.3 568.3,291.2 581.3,292.2 594.4,296.2 607.5,298.6 620.5,300.3 633.6,301.0 646.7,300.2 659.7,301.7 672.8,301.7 685.8,301.7 698.9,301.7 712.0,301.7 725.0,303.0 738.1,293.6 751.1,249.9 764.2,258.1 777.3,256.7 790.3,254.6 803.4,260.3 816.4,246.8 829.5,235.4 842.6,253.1 855.6,251.8 868.7,257.1 881.7,257.1 894.8,249.0 907.9,219.8 920.9,170.8 934.0,194.2 947.0,140.0 960.1,125.6 973.2,150.8 986.2,136.9 999.3,180.4 1012.3,199.5 1025.4,203.9 1038.5,203.3 1051.5,208.0 1064.6,198.7 1077.6,219.4 1090.7,205.2 1103.8,180.8 1116.8,95.7 1129.9,107.3 1142.9,77.9 1156.0,89.3 1156.0,344.0 72.0,344.0" fill="rgba(245,158,11,0.12)" stroke="none"/>
<polyline points="72.0,274.7 85.1,274.7 98.1,274.7 111.2,274.7 124.2,274.7 137.3,274.7 150.4,274.7 163.4,274.7 176.5,274.7 189.5,274.7 202.6,274.7 215.7,274.7 228.7,274.7 241.8,274.7 254.8,276.0 267.9,269.4 281.0,280.2 294.0,284.2 307.1,281.8 320.1,280.8 333.2,276.6 346.3,271.8 359.3,273.5 372.4,282.7 385.4,291.4 398.5,290.1 411.6,280.2 424.6,289.7 437.7,285.4 450.7,289.0 463.8,266.4 476.9,277.4 489.9,284.7 503.0,282.6 516.0,289.7 529.1,292.3 542.2,297.9 555.2,289.3 568.3,291.2 581.3,292.2 594.4,296.2 607.5,298.6 620.5,300.3 633.6,301.0 646.7,300.2 659.7,301.7 672.8,301.7 685.8,301.7 698.9,301.7 712.0,301.7 725.0,303.0 738.1,293.6 751.1,249.9 764.2,258.1 777.3,256.7 790.3,254.6 803.4,260.3 816.4,246.8 829.5,235.4 842.6,253.1 855.6,251.8 868.7,257.1 881.7,257.1 894.8,249.0 907.9,219.8 920.9,170.8 934.0,194.2 947.0,140.0 960.1,125.6 973.2,150.8 986.2,136.9 999.3,180.4 1012.3,199.5 1025.4,203.9 1038.5,203.3 1051.5,208.0 1064.6,198.7 1077.6,219.4 1090.7,205.2 1103.8,180.8 1116.8,95.7 1129.9,107.3 1142.9,77.9 1156.0,89.3" fill="none" stroke="#f59e0b" stroke-width="2.4" stroke-linejoin="round"/>
<text x="72.0" y="360.0" fill="#94a3b8" font-size="11" font-family="ui-sans-serif,system-ui,sans-serif" text-anchor="middle">06-30</text>
<text x="85.1" y="360.0" fill="#94a3b8" font-size="11" font-family="ui-sans-serif,system-ui,sans-serif" text-anchor="middle">07-01</text>
<text x="267.9" y="360.0" fill="#94a3b8" font-size="11" font-family="ui-sans-serif,system-ui,sans-serif" text-anchor="middle">07-15</text>
<text x="489.9" y="360.0" fill="#94a3b8" font-size="11" font-family="ui-sans-serif,system-ui,sans-serif" text-anchor="middle">08-01</text>
<text x="672.8" y="360.0" fill="#94a3b8" font-size="11" font-family="ui-sans-serif,system-ui,sans-serif" text-anchor="middle">08-15</text>
<text x="894.8" y="360.0" fill="#94a3b8" font-size="11" font-family="ui-sans-serif,system-ui,sans-serif" text-anchor="middle">09-01</text>
<text x="1077.6" y="360.0" fill="#94a3b8" font-size="11" font-family="ui-sans-serif,system-ui,sans-serif" text-anchor="middle">09-15</text>
<text x="1156.0" y="360.0" fill="#94a3b8" font-size="11" font-family="ui-sans-serif,system-ui,sans-serif" text-anchor="middle">09-21</text>
<text x="72" y="58" fill="#f59e0b" font-size="12" font-family="ui-sans-serif,system-ui,sans-serif" font-weight="600">Donchian equity (start €10.000)</text>
<text x="1156" y="58" fill="#e2e8f0" font-size="12" font-family="ui-sans-serif,system-ui,sans-serif" text-anchor="end">eind €13,344  (+3,360)  DD -1,692</text>
<text x="72" y="392" fill="#e2e8f0" font-size="13" font-family="ui-sans-serif,system-ui,sans-serif" font-weight="600">Wekelijkse PnL — Donchian equity-delta vs momentum realized</text>
<line x1="72" y1="525.0" x2="1156" y2="525.0" stroke="#334155" stroke-width="1"/>
<rect x="82.0" y="525.0" width="23.3" height="1.5" rx="2" fill="#f59e0b" opacity="0.92"/>
<rect x="107.4" y="515.1" width="23.3" height="9.9" rx="2" fill="#38bdf8" opacity="0.92"/>
<text x="105.4" y="666.0" fill="#94a3b8" font-size="11" font-family="ui-sans-serif,system-ui,sans-serif" text-anchor="middle">W27</text>
<rect x="165.4" y="525.0" width="23.3" height="1.5" rx="2" fill="#f59e0b" opacity="0.92"/>
<rect x="190.7" y="525.0" width="23.3" height="8.7" rx="2" fill="#38bdf8" opacity="0.92"/>
<text x="188.7" y="666.0" fill="#94a3b8" font-size="11" font-family="ui-sans-serif,system-ui,sans-serif" text-anchor="middle">W28</text>
<rect x="248.8" y="525.0" width="23.3" height="3.2" rx="2" fill="#f59e0b" opacity="0.92"/>
<rect x="274.1" y="525.0" width="23.3" height="6.9" rx="2" fill="#38bdf8" opacity="0.92"/>
<text x="272.1" y="666.0" fill="#94a3b8" font-size="11" font-family="ui-sans-serif,system-ui,sans-serif" text-anchor="middle">W29</text>
<rect x="332.2" y="524.6" width="23.3" height="1.5" rx="2" fill="#f59e0b" opacity="0.92"/>
<rect x="357.5" y="525.0" width="23.3" height="16.8" rx="2" fill="#38bdf8" opacity="0.92"/>
<text x="355.5" y="666.0" fill="#94a3b8" font-size="11" font-family="ui-sans-serif,system-ui,sans-serif" text-anchor="middle">W30</text>
<rect x="415.5" y="525.0" width="23.3" height="1.5" rx="2" fill="#f59e0b" opacity="0.92"/>
<rect x="440.9" y="525.0" width="23.3" height="6.9" rx="2" fill="#38bdf8" opacity="0.92"/>
<text x="438.9" y="666.0" fill="#94a3b8" font-size="11" font-family="ui-sans-serif,system-ui,sans-serif" text-anchor="middle">W31</text>
<rect x="498.9" y="525.0" width="23.3" height="7.2" rx="2" fill="#f59e0b" opacity="0.92"/>
<rect x="524.3" y="525.0" width="23.3" height="12.6" rx="2" fill="#38bdf8" opacity="0.92"/>
<text x="522.3" y="666.0" fill="#94a3b8" font-size="11" font-family="ui-sans-serif,system-ui,sans-serif" text-anchor="middle">W32</text>
<rect x="582.3" y="525.0" width="23.3" height="2.9" rx="2" fill="#f59e0b" opacity="0.92"/>
<rect x="607.7" y="523.7" width="23.3" height="1.5" rx="2" fill="#38bdf8" opacity="0.92"/>
<text x="605.7" y="666.0" fill="#94a3b8" font-size="11" font-family="ui-sans-serif,system-ui,sans-serif" text-anchor="middle">W33</text>
<rect x="665.7" y="501.2" width="23.3" height="23.8" rx="2" fill="#f59e0b" opacity="0.92"/>
<rect x="691.0" y="501.8" width="23.3" height="23.2" rx="2" fill="#38bdf8" opacity="0.92"/>
<text x="689.0" y="666.0" fill="#94a3b8" font-size="11" font-family="ui-sans-serif,system-ui,sans-serif" text-anchor="middle">W34</text>
<rect x="749.1" y="525.0" width="23.3" height="1.5" rx="2" fill="#f59e0b" opacity="0.92"/>
<rect x="774.4" y="517.5" width="23.3" height="7.5" rx="2" fill="#38bdf8" opacity="0.92"/>
<text x="772.4" y="666.0" fill="#94a3b8" font-size="11" font-family="ui-sans-serif,system-ui,sans-serif" text-anchor="middle">W35</text>
<rect x="832.5" y="455.5" width="23.3" height="69.5" rx="2" fill="#f59e0b" opacity="0.92"/>
<rect x="857.8" y="525.0" width="23.3" height="8.3" rx="2" fill="#38bdf8" opacity="0.92"/>
<text x="855.8" y="666.0" fill="#94a3b8" font-size="11" font-family="ui-sans-serif,system-ui,sans-serif" text-anchor="middle">W36</text>
<rect x="915.9" y="525.0" width="23.3" height="43.5" rx="2" fill="#f59e0b" opacity="0.92"/>
<rect x="941.2" y="525.0" width="23.3" height="2.0" rx="2" fill="#38bdf8" opacity="0.92"/>
<text x="939.2" y="666.0" fill="#94a3b8" font-size="11" font-family="ui-sans-serif,system-ui,sans-serif" text-anchor="middle">W37</text>
<rect x="999.2" y="456.2" width="23.3" height="68.8" rx="2" fill="#f59e0b" opacity="0.92"/>
<rect x="1024.6" y="482.2" width="23.3" height="42.8" rx="2" fill="#38bdf8" opacity="0.92"/>
<text x="1022.6" y="666.0" fill="#94a3b8" font-size="11" font-family="ui-sans-serif,system-ui,sans-serif" text-anchor="middle">W38</text>
<rect x="1082.6" y="525.0" width="23.3" height="6.1" rx="2" fill="#f59e0b" opacity="0.92"/>
<rect x="1108.0" y="517.3" width="23.3" height="7.7" rx="2" fill="#38bdf8" opacity="0.92"/>
<text x="1106.0" y="666.0" fill="#94a3b8" font-size="11" font-family="ui-sans-serif,system-ui,sans-serif" text-anchor="middle">W39</text>
<rect x="72" y="688" width="10" height="10" rx="2" fill="#f59e0b"/>
<text x="88" y="697" fill="#cbd5e1" font-size="12" font-family="ui-sans-serif,system-ui,sans-serif">Donchian</text>
<rect x="170" y="688" width="10" height="10" rx="2" fill="#38bdf8"/>
<text x="186" y="697" fill="#cbd5e1" font-size="12" font-family="ui-sans-serif,system-ui,sans-serif">Momentum realized</text>
<text x="360" y="697" fill="#64748b" font-size="11" font-family="ui-sans-serif,system-ui,sans-serif">Rode achtergrond = BTC SMA20&lt;SMA50. Donchian-sleeves bleven altijd aan (geen flatten-to-short).</text>
</svg>